<?xml version="1.0" encoding="UTF-8" standalone="no"?>
<!-- Created with Inkscape (http://www.inkscape.org/) -->
<svg
   xmlns:dc="http://purl.org/dc/elements/1.1/"
   xmlns:cc="http://creativecommons.org/ns#"
   xmlns:rdf="http://www.w3.org/1999/02/22-rdf-syntax-ns#"
   xmlns:svg="http://www.w3.org/2000/svg"
   xmlns="http://www.w3.org/2000/svg"
   xmlns:sodipodi="http://sodipodi.sourceforge.net/DTD/sodipodi-0.dtd"
   xmlns:inkscape="http://www.inkscape.org/namespaces/inkscape"
   id="svg4611"
   sodipodi:version="0.32"
   inkscape:version="0.46"
   width="210mm"
   height="297mm"
   sodipodi:docname="farm2.svg"
   inkscape:output_extension="org.inkscape.output.svg.inkscape">
  <metadata
     id="metadata4616">
    <rdf:RDF>
      <cc:Work
         rdf:about="">
        <dc:format>image/svg+xml</dc:format>
        <dc:type
           rdf:resource="http://purl.org/dc/dcmitype/StillImage" />
      </cc:Work>
    </rdf:RDF>
  </metadata>
  <defs
     id="defs4614">
    <inkscape:perspective
       sodipodi:type="inkscape:persp3d"
       inkscape:vp_x="0 : 526.18109 : 1"
       inkscape:vp_y="0 : 1000 : 0"
       inkscape:vp_z="744.09448 : 526.18109 : 1"
       inkscape:persp3d-origin="372.04724 : 350.78739 : 1"
       id="perspective4618" />
  </defs>
  <sodipodi:namedview
     inkscape:window-height="672"
     inkscape:window-width="640"
     inkscape:pageshadow="2"
     inkscape:pageopacity="0.0"
     guidetolerance="10.0"
     gridtolerance="10.0"
     objecttolerance="10.0"
     borderopacity="1.0"
     bordercolor="#666666"
     pagecolor="#ffffff"
     id="base"
     showgrid="false"
     inkscape:zoom="0.4751216"
     inkscape:cx="372.04724"
     inkscape:cy="526.18109"
     inkscape:window-x="316"
     inkscape:window-y="47"
     inkscape:current-layer="svg4611" />
  <g
     id="g4518"
     transform="translate(39.360982,157.85431)">
    <rect
       style="fill:#30e029;fill-opacity:1;stroke:none;stroke-width:1.00899994;stroke-linecap:round;stroke-linejoin:miter;stroke-miterlimit:4;stroke-dasharray:none;stroke-dashoffset:0;stroke-opacity:1"
       id="rect2382"
       width="64"
       height="64"
       x="300.64285"
       y="336.32678"
       ry="28.387098"
       rx="0" />
    <g
       transform="matrix(0.8411477,0,0,0.8411477,-35.945901,14.4457)"
       id="g4427">
      <path
         style="fill:#dca05f;fill-opacity:1;fill-rule:evenodd;stroke:#000000;stroke-width:0.30000001;stroke-linecap:butt;stroke-linejoin:miter;stroke-miterlimit:4;stroke-dasharray:none;stroke-opacity:1"
         d="M 401.47617,393.18882 L 431.07386,388.97937 L 445.80693,389.6371 L 469.87972,391.87337 L 472.24753,394.89891 L 471.72135,400.94999 L 473.95762,406.47489 L 473.29989,411.34207 L 475.27307,418.84015 L 474.61535,426.07514 L 475.79925,433.44167 L 473.82607,438.83503 L 476.19389,446.85929 L 466.45954,451.20029 L 426.99596,453.83119 L 404.10708,449.09556 L 403.31781,441.20285 L 405.68562,432.78395 L 400.6869,422.78651 L 403.31781,413.05216 L 400.42381,402.79163 L 401.47617,393.18882 z"
         id="path3448" />
      <path
         style="fill:#20649b;fill-opacity:1;fill-rule:evenodd;stroke:#000000;stroke-width:0.30000001;stroke-linecap:butt;stroke-linejoin:miter;stroke-miterlimit:4;stroke-dasharray:none;stroke-opacity:1"
         d="M 401.23255,395.85134 L 403.31978,396.7815 C 404.41603,397.37726 404.49662,398.31157 404.01741,399.43248 C 403.36889,400.05129 402.91665,400.57196 402.43612,401.10677 L 402.71517,402.12996 C 403.17015,402.7788 403.86176,402.87553 404.5755,402.9206 C 405.97314,402.89159 406.74572,402.34169 407.64505,401.89742 C 408.40469,401.69522 409.16432,402.00419 409.92396,402.40901 C 410.79639,403.45846 410.73621,404.57453 410.38904,405.71109 C 410.05307,406.1894 409.82372,406.7591 408.90077,406.73428 C 406.56675,406.50432 404.77099,407.08176 402.94772,407.61793 C 402.44944,407.80178 402.37,408.40446 402.20358,408.92017 L 400.40737,402.79162 L 401.23255,395.85134 z"
         id="path4425"
         sodipodi:nodetypes="cccccccccccccc" />
      <path
         style="fill:#20649b;fill-opacity:1;fill-rule:evenodd;stroke:#000000;stroke-width:0.30000001;stroke-linecap:butt;stroke-linejoin:miter;stroke-miterlimit:4;stroke-dasharray:none;stroke-opacity:1"
         d="M 472.98918,404.12981 L 471.03583,405.89713 L 469.54757,407.29238 C 468.38604,406.84957 467.04821,406.55367 465.36182,406.54824 C 464.35045,406.91736 463.23919,406.78701 462.38529,407.94349 C 462.39222,408.64744 462.59706,409.38437 463.12943,410.17589 C 464.88702,410.4422 466.65758,410.76685 468.24534,410.26891 L 469.61712,410.71272 L 471.4079,411.29209 L 471.22187,413.43147 C 469.64187,413.64236 467.83871,413.5743 466.57104,414.1756 C 464.83363,414.45355 463.61391,415.24919 462.29228,415.94292 C 461.73178,416.81822 461.31291,417.79468 461.36211,419.10548 C 461.72438,420.54153 462.52654,421.53769 463.31546,422.54709 C 462.20529,423.13996 461.73007,424.12969 459.96686,424.31441 C 457.58156,424.4646 456.22336,425.03067 454.4676,425.30938 C 452.60372,425.37935 450.8025,425.85286 449.17694,426.08172 C 447.77959,426.02328 446.71683,426.20183 447.40108,427.61786 C 450.59631,427.75337 453.71478,427.65861 456.99033,428.03507 C 458.54061,428.2455 460.09088,428.68842 461.64116,429.3373 C 464.21462,429.89999 466.78807,431.15979 469.36153,432.49986 L 470.66377,436.96466 L 471.50092,437.61577 L 473.36125,437.52276 L 474.47745,436.96466 L 475.80875,433.43003 L 474.61697,426.08753 L 475.08205,421.11696 L 475.27971,418.80317 L 474.39606,415.47783 L 473.55309,412.27457 L 473.31474,411.32115 L 473.88447,406.99588 L 473.95423,406.46685 L 472.98918,404.12981 z"
         id="path4423"
         sodipodi:nodetypes="ccccccccccccccccccccccccccccccccccc" />
      <path
         style="fill:none;fill-rule:evenodd;stroke:#000000;stroke-width:0.30000001;stroke-linecap:butt;stroke-linejoin:miter;stroke-miterlimit:4;stroke-dasharray:none;stroke-opacity:1"
         d="M 405.55408,398.71372 L 434.0994,397.00363 L 467.38036,399.10836"
         id="path4221" />
      <path
         style="fill:none;fill-rule:evenodd;stroke:#000000;stroke-width:0.30000001;stroke-linecap:butt;stroke-linejoin:miter;stroke-miterlimit:4;stroke-dasharray:none;stroke-opacity:1"
         d="M 410.68434,404.63326 L 432.6524,403.05472 L 468.43272,405.42253"
         id="path4223"
         sodipodi:nodetypes="ccc" />
      <path
         style="fill:none;fill-rule:evenodd;stroke:#000000;stroke-width:0.30000001;stroke-linecap:butt;stroke-linejoin:miter;stroke-miterlimit:4;stroke-dasharray:none;stroke-opacity:1"
         d="M 405.29099,411.07898 L 436.46722,408.71116 L 470.66899,411.7367"
         id="path4225" />
      <path
         style="fill:none;fill-rule:evenodd;stroke:#000000;stroke-width:0.30000001;stroke-linecap:butt;stroke-linejoin:miter;stroke-miterlimit:4;stroke-dasharray:none;stroke-opacity:1"
         d="M 405.55408,416.86697 L 437.65113,414.49916 L 461.75679,416.76831"
         id="path4227"
         sodipodi:nodetypes="ccc" />
      <path
         style="fill:none;fill-rule:evenodd;stroke:#000000;stroke-width:0.30000001;stroke-linecap:butt;stroke-linejoin:miter;stroke-miterlimit:4;stroke-dasharray:none;stroke-opacity:1"
         d="M 406.47489,422.52341 L 432.6524,420.41869 L 447.38547,421.20796 L 462.08565,423.31268"
         id="path4237"
         sodipodi:nodetypes="cccc" />
      <path
         style="fill:none;fill-rule:evenodd;stroke:#000000;stroke-width:0.30000001;stroke-linecap:butt;stroke-linejoin:miter;stroke-miterlimit:4;stroke-dasharray:none;stroke-opacity:1"
         d="M 406.34335,428.96913 L 428.83759,426.86441 L 451.72647,428.04832 L 461.36216,429.13356"
         id="path4239"
         sodipodi:nodetypes="cccc" />
      <path
         style="fill:none;fill-rule:evenodd;stroke:#000000;stroke-width:0.30000001;stroke-linecap:butt;stroke-linejoin:miter;stroke-miterlimit:4;stroke-dasharray:none;stroke-opacity:1"
         d="M 406.86953,435.80949 L 428.17986,433.17858 L 451.72647,433.31013 L 469.22199,437.38803"
         id="path4241" />
      <path
         style="fill:none;fill-rule:evenodd;stroke:#000000;stroke-width:0.30000001;stroke-linecap:butt;stroke-linejoin:miter;stroke-miterlimit:4;stroke-dasharray:none;stroke-opacity:1"
         d="M 406.86953,441.46593 L 438.04576,439.09812 L 468.16963,440.93975"
         id="path4243" />
      <path
         style="fill:none;fill-rule:evenodd;stroke:#000000;stroke-width:0.30000001;stroke-linecap:butt;stroke-linejoin:miter;stroke-miterlimit:4;stroke-dasharray:none;stroke-opacity:1"
         d="M 407.52726,447.12238 L 432.6524,444.35993 L 449.88483,444.49148 L 469.74817,446.33311"
         id="path4245" />
      <path
         id="path4300"
         d="M 407.59356,397.66755 L 408.22154,398.31231 L 409.09104,398.37095 L 410.78182,397.60897 L 409.09104,397.8434 L 410.44364,396.84702 L 409.04274,397.31588 L 409.4775,396.02643 L 408.89784,395.49891 L 408.89784,396.67117 L 407.98002,395.55751 L 407.6902,395.73335 L 408.608,396.67117 L 407.01386,396.90562 L 408.608,397.49172 L 407.59356,397.66755 z"
         style="fill:#205d13;fill-opacity:1;fill-rule:evenodd;stroke:#000000;stroke-width:0.14301451px;stroke-linecap:butt;stroke-linejoin:miter;stroke-opacity:1" />
      <path
         id="path4247"
         d="M 413.72106,397.47316 L 414.34904,398.11792 L 415.21854,398.17656 L 416.90932,397.41458 L 415.21854,397.64901 L 416.57114,396.65263 L 415.17024,397.12149 L 415.605,395.83204 L 415.02534,395.30452 L 415.02534,396.47678 L 414.10752,395.36312 L 413.8177,395.53896 L 414.7355,396.47678 L 413.14136,396.71123 L 414.7355,397.29733 L 413.72106,397.47316 z"
         style="fill:#205d13;fill-opacity:1;fill-rule:evenodd;stroke:#000000;stroke-width:0.14301451px;stroke-linecap:butt;stroke-linejoin:miter;stroke-opacity:1" />
      <path
         id="path4249"
         d="M 420.8245,396.94698 L 421.45248,397.59174 L 422.32198,397.65038 L 424.01276,396.8884 L 422.32198,397.12283 L 423.67458,396.12645 L 422.27368,396.59531 L 422.70844,395.30586 L 422.12878,394.77834 L 422.12878,395.9506 L 421.21096,394.83694 L 420.92114,395.01278 L 421.83894,395.9506 L 420.2448,396.18505 L 421.83894,396.77115 L 420.8245,396.94698 z"
         style="fill:#205d13;fill-opacity:1;fill-rule:evenodd;stroke:#000000;stroke-width:0.14301451px;stroke-linecap:butt;stroke-linejoin:miter;stroke-opacity:1" />
      <path
         id="path4251"
         d="M 427.7964,396.4208 L 428.42438,397.06556 L 429.29388,397.1242 L 430.98466,396.36222 L 429.29388,396.59665 L 430.64648,395.60027 L 429.24558,396.06913 L 429.68034,394.77968 L 429.10068,394.25216 L 429.10068,395.42442 L 428.18286,394.31076 L 427.89304,394.4866 L 428.81084,395.42442 L 427.2167,395.65887 L 428.81084,396.24497 L 427.7964,396.4208 z"
         style="fill:#205d13;fill-opacity:1;fill-rule:evenodd;stroke:#000000;stroke-width:0.14301451px;stroke-linecap:butt;stroke-linejoin:miter;stroke-opacity:1" />
      <path
         id="path4253"
         d="M 435.42602,396.55234 L 436.054,397.1971 L 436.9235,397.25574 L 438.61428,396.49376 L 436.9235,396.72819 L 438.2761,395.73181 L 436.8752,396.20067 L 437.30996,394.91122 L 436.7303,394.3837 L 436.7303,395.55596 L 435.81248,394.4423 L 435.52266,394.61814 L 436.44046,395.55596 L 434.84632,395.79041 L 436.44046,396.37651 L 435.42602,396.55234 z"
         style="fill:#205d13;fill-opacity:1;fill-rule:evenodd;stroke:#000000;stroke-width:0.14301451px;stroke-linecap:butt;stroke-linejoin:miter;stroke-opacity:1" />
      <path
         id="path4255"
         d="M 442.39793,397.21007 L 443.02591,397.85483 L 443.89541,397.91347 L 445.58619,397.15149 L 443.89541,397.38592 L 445.24801,396.38954 L 443.84711,396.8584 L 444.28187,395.56895 L 443.70221,395.04143 L 443.70221,396.21369 L 442.78439,395.10003 L 442.49457,395.27587 L 443.41237,396.21369 L 441.81823,396.44814 L 443.41237,397.03424 L 442.39793,397.21007 z"
         style="fill:#205d13;fill-opacity:1;fill-rule:evenodd;stroke:#000000;stroke-width:0.14301451px;stroke-linecap:butt;stroke-linejoin:miter;stroke-opacity:1" />
      <path
         id="path4257"
         d="M 449.76446,397.8678 L 450.39244,398.51256 L 451.26194,398.5712 L 452.95272,397.80922 L 451.26194,398.04365 L 452.61454,397.04727 L 451.21364,397.51613 L 451.6484,396.22668 L 451.06874,395.69916 L 451.06874,396.87142 L 450.15092,395.75776 L 449.8611,395.9336 L 450.7789,396.87142 L 449.18476,397.10587 L 450.7789,397.69197 L 449.76446,397.8678 z"
         style="fill:#205d13;fill-opacity:1;fill-rule:evenodd;stroke:#000000;stroke-width:0.14301451px;stroke-linecap:butt;stroke-linejoin:miter;stroke-opacity:1" />
      <path
         id="path4259"
         d="M 457.52563,398.39398 L 458.15361,399.03874 L 459.02311,399.09738 L 460.71389,398.3354 L 459.02311,398.56983 L 460.37571,397.57345 L 458.97481,398.04231 L 459.40957,396.75286 L 458.82991,396.22534 L 458.82991,397.3976 L 457.91209,396.28394 L 457.62227,396.45978 L 458.54007,397.3976 L 456.94593,397.63205 L 458.54007,398.21815 L 457.52563,398.39398 z"
         style="fill:#205d13;fill-opacity:1;fill-rule:evenodd;stroke:#000000;stroke-width:0.14301451px;stroke-linecap:butt;stroke-linejoin:miter;stroke-opacity:1" />
      <path
         id="path4261"
         d="M 464.76062,398.65707 L 465.3886,399.30183 L 466.2581,399.36047 L 467.94888,398.59849 L 466.2581,398.83292 L 467.6107,397.83654 L 466.2098,398.3054 L 466.64456,397.01595 L 466.0649,396.48843 L 466.0649,397.66069 L 465.14708,396.54703 L 464.85726,396.72287 L 465.77506,397.66069 L 464.18092,397.89514 L 465.77506,398.48124 L 464.76062,398.65707 z"
         style="fill:#205d13;fill-opacity:1;fill-rule:evenodd;stroke:#000000;stroke-width:0.14301451px;stroke-linecap:butt;stroke-linejoin:miter;stroke-opacity:1" />
      <path
         id="path4263"
         d="M 407.66997,404.44506 L 408.29795,405.08982 L 409.16745,405.14846 L 410.85823,404.38648 L 409.16745,404.62091 L 410.52005,403.62453 L 409.11915,404.09339 L 409.55391,402.80394 L 408.97425,402.27642 L 408.97425,403.44868 L 408.05643,402.33502 L 407.76661,402.51086 L 408.68441,403.44868 L 407.09027,403.68313 L 408.68441,404.26923 L 407.66997,404.44506 z"
         style="fill:#205d13;fill-opacity:1;fill-rule:evenodd;stroke:#000000;stroke-width:0.14301451px;stroke-linecap:butt;stroke-linejoin:miter;stroke-opacity:1" />
      <path
         id="path4265"
         d="M 414.24723,403.78734 L 414.87521,404.4321 L 415.74471,404.49074 L 417.43549,403.72876 L 415.74471,403.96319 L 417.09731,402.96681 L 415.69641,403.43567 L 416.13117,402.14622 L 415.55151,401.6187 L 415.55151,402.79096 L 414.63369,401.6773 L 414.34387,401.85314 L 415.26167,402.79096 L 413.66753,403.02541 L 415.26167,403.61151 L 414.24723,403.78734 z"
         style="fill:#205d13;fill-opacity:1;fill-rule:evenodd;stroke:#000000;stroke-width:0.14301451px;stroke-linecap:butt;stroke-linejoin:miter;stroke-opacity:1" />
      <path
         id="path4267"
         d="M 421.35069,403.26115 L 421.97867,403.90591 L 422.84817,403.96455 L 424.53895,403.20257 L 422.84817,403.437 L 424.20077,402.44062 L 422.79987,402.90948 L 423.23463,401.62003 L 422.65497,401.09251 L 422.65497,402.26477 L 421.73715,401.15111 L 421.44733,401.32695 L 422.36513,402.26477 L 420.77099,402.49922 L 422.36513,403.08532 L 421.35069,403.26115 z"
         style="fill:#205d13;fill-opacity:1;fill-rule:evenodd;stroke:#000000;stroke-width:0.14301451px;stroke-linecap:butt;stroke-linejoin:miter;stroke-opacity:1" />
      <path
         id="path4269"
         d="M 428.45413,402.99806 L 429.08211,403.64282 L 429.95161,403.70146 L 431.64239,402.93948 L 429.95161,403.17391 L 431.30421,402.17753 L 429.90331,402.64639 L 430.33807,401.35694 L 429.75841,400.82942 L 429.75841,402.00168 L 428.84059,400.88802 L 428.55077,401.06386 L 429.46857,402.00168 L 427.87443,402.23613 L 429.46857,402.82223 L 428.45413,402.99806 z"
         style="fill:#205d13;fill-opacity:1;fill-rule:evenodd;stroke:#000000;stroke-width:0.14301451px;stroke-linecap:butt;stroke-linejoin:miter;stroke-opacity:1" />
      <path
         id="path4271"
         d="M 435.55757,402.86652 L 436.18555,403.51128 L 437.05505,403.56992 L 438.74583,402.80794 L 437.05505,403.04237 L 438.40765,402.04599 L 437.00675,402.51485 L 437.44151,401.2254 L 436.86185,400.69788 L 436.86185,401.87014 L 435.94403,400.75648 L 435.65421,400.93232 L 436.57201,401.87014 L 434.97787,402.10459 L 436.57201,402.69069 L 435.55757,402.86652 z"
         style="fill:#205d13;fill-opacity:1;fill-rule:evenodd;stroke:#000000;stroke-width:0.14301451px;stroke-linecap:butt;stroke-linejoin:miter;stroke-opacity:1" />
      <path
         id="path4273"
         d="M 442.9241,403.52425 L 443.55208,404.16901 L 444.42158,404.22765 L 446.11236,403.46567 L 444.42158,403.7001 L 445.77418,402.70372 L 444.37328,403.17258 L 444.80804,401.88313 L 444.22838,401.35561 L 444.22838,402.52787 L 443.31056,401.41421 L 443.02074,401.59005 L 443.93854,402.52787 L 442.3444,402.76232 L 443.93854,403.34842 L 442.9241,403.52425 z"
         style="fill:#205d13;fill-opacity:1;fill-rule:evenodd;stroke:#000000;stroke-width:0.14301451px;stroke-linecap:butt;stroke-linejoin:miter;stroke-opacity:1" />
      <path
         id="path4275"
         d="M 448.97519,403.91888 L 449.60317,404.56364 L 450.47267,404.62228 L 452.16345,403.8603 L 450.47267,404.09473 L 451.82527,403.09835 L 450.42437,403.56721 L 450.85913,402.27776 L 450.27947,401.75024 L 450.27947,402.9225 L 449.36165,401.80884 L 449.07183,401.98468 L 449.98963,402.9225 L 448.39549,403.15695 L 449.98963,403.74305 L 448.97519,403.91888 z"
         style="fill:#205d13;fill-opacity:1;fill-rule:evenodd;stroke:#000000;stroke-width:0.14301451px;stroke-linecap:butt;stroke-linejoin:miter;stroke-opacity:1" />
      <path
         id="path4277"
         d="M 456.86791,404.70815 L 457.49589,405.35291 L 458.36539,405.41155 L 460.05617,404.64957 L 458.36539,404.884 L 459.71799,403.88762 L 458.31709,404.35648 L 458.75185,403.06703 L 458.17219,402.53951 L 458.17219,403.71177 L 457.25437,402.59811 L 456.96455,402.77395 L 457.88235,403.71177 L 456.28821,403.94622 L 457.88235,404.53232 L 456.86791,404.70815 z"
         style="fill:#205d13;fill-opacity:1;fill-rule:evenodd;stroke:#000000;stroke-width:0.14301451px;stroke-linecap:butt;stroke-linejoin:miter;stroke-opacity:1" />
      <path
         id="path4279"
         d="M 466.07607,404.8397 L 466.70405,405.48446 L 467.57355,405.5431 L 469.26433,404.78112 L 467.57355,405.01555 L 468.92615,404.01917 L 467.52525,404.48803 L 467.96001,403.19858 L 467.38035,402.67106 L 467.38035,403.84332 L 466.46253,402.72966 L 466.17271,402.9055 L 467.09051,403.84332 L 465.49637,404.07777 L 467.09051,404.66387 L 466.07607,404.8397 z"
         style="fill:#205d13;fill-opacity:1;fill-rule:evenodd;stroke:#000000;stroke-width:0.14301451px;stroke-linecap:butt;stroke-linejoin:miter;stroke-opacity:1" />
      <path
         id="path4281"
         d="M 408.19615,410.49614 L 408.82413,411.1409 L 409.69363,411.19954 L 411.38441,410.43756 L 409.69363,410.67199 L 411.04623,409.67561 L 409.64533,410.14447 L 410.08009,408.85502 L 409.50043,408.3275 L 409.50043,409.49976 L 408.58261,408.3861 L 408.29279,408.56194 L 409.21059,409.49976 L 407.61645,409.73421 L 409.21059,410.32031 L 408.19615,410.49614 z"
         style="fill:#205d13;fill-opacity:1;fill-rule:evenodd;stroke:#000000;stroke-width:0.14301451px;stroke-linecap:butt;stroke-linejoin:miter;stroke-opacity:1" />
      <path
         id="path4283"
         d="M 415.16805,409.83842 L 415.79603,410.48318 L 416.66553,410.54182 L 418.35631,409.77984 L 416.66553,410.01427 L 418.01813,409.01789 L 416.61723,409.48675 L 417.05199,408.1973 L 416.47233,407.66978 L 416.47233,408.84204 L 415.55451,407.72838 L 415.26469,407.90422 L 416.18249,408.84204 L 414.58835,409.07649 L 416.18249,409.66259 L 415.16805,409.83842 z"
         style="fill:#205d13;fill-opacity:1;fill-rule:evenodd;stroke:#000000;stroke-width:0.14301451px;stroke-linecap:butt;stroke-linejoin:miter;stroke-opacity:1" />
      <path
         id="path4285"
         d="M 422.53459,409.18069 L 423.16257,409.82545 L 424.03207,409.88409 L 425.72285,409.12211 L 424.03207,409.35654 L 425.38467,408.36016 L 423.98377,408.82902 L 424.41853,407.53957 L 423.83887,407.01205 L 423.83887,408.18431 L 422.92105,407.07065 L 422.63123,407.24649 L 423.54903,408.18431 L 421.95489,408.41876 L 423.54903,409.00486 L 422.53459,409.18069 z"
         style="fill:#205d13;fill-opacity:1;fill-rule:evenodd;stroke:#000000;stroke-width:0.14301451px;stroke-linecap:butt;stroke-linejoin:miter;stroke-opacity:1" />
      <path
         id="path4287"
         d="M 430.55885,408.6545 L 431.18683,409.29926 L 432.05633,409.3579 L 433.74711,408.59592 L 432.05633,408.83035 L 433.40893,407.83397 L 432.00803,408.30283 L 432.44279,407.01338 L 431.86313,406.48586 L 431.86313,407.65812 L 430.94531,406.54446 L 430.65549,406.7203 L 431.57329,407.65812 L 429.97915,407.89257 L 431.57329,408.47867 L 430.55885,408.6545 z"
         style="fill:#205d13;fill-opacity:1;fill-rule:evenodd;stroke:#000000;stroke-width:0.14301451px;stroke-linecap:butt;stroke-linejoin:miter;stroke-opacity:1" />
      <path
         id="path4289"
         d="M 438.71466,408.65451 L 439.34264,409.29927 L 440.21214,409.35791 L 441.90292,408.59593 L 440.21214,408.83036 L 441.56474,407.83398 L 440.16384,408.30284 L 440.5986,407.01339 L 440.01894,406.48587 L 440.01894,407.65813 L 439.10112,406.54447 L 438.8113,406.72031 L 439.7291,407.65813 L 438.13496,407.89258 L 439.7291,408.47868 L 438.71466,408.65451 z"
         style="fill:#205d13;fill-opacity:1;fill-rule:evenodd;stroke:#000000;stroke-width:0.14301451px;stroke-linecap:butt;stroke-linejoin:miter;stroke-opacity:1" />
      <path
         id="path4291"
         d="M 446.21273,409.31224 L 446.84071,409.957 L 447.71021,410.01564 L 449.40099,409.25366 L 447.71021,409.48809 L 449.06281,408.49171 L 447.66191,408.96057 L 448.09667,407.67112 L 447.51701,407.1436 L 447.51701,408.31586 L 446.59919,407.2022 L 446.30937,407.37804 L 447.22717,408.31586 L 445.63303,408.55031 L 447.22717,409.13641 L 446.21273,409.31224 z"
         style="fill:#205d13;fill-opacity:1;fill-rule:evenodd;stroke:#000000;stroke-width:0.14301451px;stroke-linecap:butt;stroke-linejoin:miter;stroke-opacity:1" />
      <path
         id="path4293"
         d="M 453.97391,410.10151 L 454.60189,410.74627 L 455.47139,410.80491 L 457.16217,410.04293 L 455.47139,410.27736 L 456.82399,409.28098 L 455.42309,409.74984 L 455.85785,408.46039 L 455.27819,407.93287 L 455.27819,409.10513 L 454.36037,407.99147 L 454.07055,408.16731 L 454.98835,409.10513 L 453.39421,409.33958 L 454.98835,409.92568 L 453.97391,410.10151 z"
         style="fill:#205d13;fill-opacity:1;fill-rule:evenodd;stroke:#000000;stroke-width:0.14301451px;stroke-linecap:butt;stroke-linejoin:miter;stroke-opacity:1" />
      <path
         id="path4295"
         d="M 462.3928,410.75923 L 463.02078,411.40399 L 463.89028,411.46263 L 465.58106,410.70065 L 463.89028,410.93508 L 465.24288,409.9387 L 463.84198,410.40756 L 464.27674,409.11811 L 463.69708,408.59059 L 463.69708,409.76285 L 462.77926,408.64919 L 462.48944,408.82503 L 463.40724,409.76285 L 461.8131,409.9973 L 463.40724,410.5834 L 462.3928,410.75923 z"
         style="fill:#205d13;fill-opacity:1;fill-rule:evenodd;stroke:#000000;stroke-width:0.14301451px;stroke-linecap:butt;stroke-linejoin:miter;stroke-opacity:1" />
      <path
         id="path4297"
         d="M 467.25998,411.15387 L 467.88796,411.79863 L 468.75746,411.85727 L 470.44824,411.09529 L 468.75746,411.32972 L 470.11006,410.33334 L 468.70916,410.8022 L 469.14392,409.51275 L 468.56426,408.98523 L 468.56426,410.15749 L 467.64644,409.04383 L 467.35662,409.21967 L 468.27442,410.15749 L 466.68028,410.39194 L 468.27442,410.97804 L 467.25998,411.15387 z"
         style="fill:#205d13;fill-opacity:1;fill-rule:evenodd;stroke:#000000;stroke-width:0.14301451px;stroke-linecap:butt;stroke-linejoin:miter;stroke-opacity:1" />
      <path
         id="path4299"
         d="M 407.01225,416.02104 L 407.64023,416.6658 L 408.50973,416.72444 L 410.20051,415.96246 L 408.50973,416.19689 L 409.86233,415.20051 L 408.46143,415.66937 L 408.89619,414.37992 L 408.31653,413.8524 L 408.31653,415.02466 L 407.39871,413.911 L 407.10889,414.08684 L 408.02669,415.02466 L 406.43255,415.25911 L 408.02669,415.84521 L 407.01225,416.02104 z"
         style="fill:#205d13;fill-opacity:1;fill-rule:evenodd;stroke:#000000;stroke-width:0.14301451px;stroke-linecap:butt;stroke-linejoin:miter;stroke-opacity:1" />
      <path
         id="path4301"
         d="M 413.8526,415.75796 L 414.48058,416.40272 L 415.35008,416.46136 L 417.04086,415.69938 L 415.35008,415.93381 L 416.70268,414.93743 L 415.30178,415.40629 L 415.73654,414.11684 L 415.15688,413.58932 L 415.15688,414.76158 L 414.23906,413.64792 L 413.94924,413.82376 L 414.86704,414.76158 L 413.2729,414.99603 L 414.86704,415.58213 L 413.8526,415.75796 z"
         style="fill:#205d13;fill-opacity:1;fill-rule:evenodd;stroke:#000000;stroke-width:0.14301451px;stroke-linecap:butt;stroke-linejoin:miter;stroke-opacity:1" />
      <path
         id="path4303"
         d="M 421.74532,415.23177 L 422.3733,415.87653 L 423.2428,415.93517 L 424.93358,415.17319 L 423.2428,415.40762 L 424.5954,414.41124 L 423.1945,414.8801 L 423.62926,413.59065 L 423.0496,413.06313 L 423.0496,414.23539 L 422.13178,413.12173 L 421.84196,413.29757 L 422.75976,414.23539 L 421.16562,414.46984 L 422.75976,415.05594 L 421.74532,415.23177 z"
         style="fill:#205d13;fill-opacity:1;fill-rule:evenodd;stroke:#000000;stroke-width:0.14301451px;stroke-linecap:butt;stroke-linejoin:miter;stroke-opacity:1" />
      <path
         id="path4305"
         d="M 429.50648,414.70559 L 430.13446,415.35035 L 431.00396,415.40899 L 432.69474,414.64701 L 431.00396,414.88144 L 432.35656,413.88506 L 430.95566,414.35392 L 431.39042,413.06447 L 430.81076,412.53695 L 430.81076,413.70921 L 429.89294,412.59555 L 429.60312,412.77139 L 430.52092,413.70921 L 428.92678,413.94366 L 430.52092,414.52976 L 429.50648,414.70559 z"
         style="fill:#205d13;fill-opacity:1;fill-rule:evenodd;stroke:#000000;stroke-width:0.14301451px;stroke-linecap:butt;stroke-linejoin:miter;stroke-opacity:1" />
      <path
         id="path4307"
         d="M 438.18847,414.31096 L 438.81645,414.95572 L 439.68595,415.01436 L 441.37673,414.25238 L 439.68595,414.48681 L 441.03855,413.49043 L 439.63765,413.95929 L 440.07241,412.66984 L 439.49275,412.14232 L 439.49275,413.31458 L 438.57493,412.20092 L 438.28511,412.37676 L 439.20291,413.31458 L 437.60877,413.54903 L 439.20291,414.13513 L 438.18847,414.31096 z"
         style="fill:#205d13;fill-opacity:1;fill-rule:evenodd;stroke:#000000;stroke-width:0.14301451px;stroke-linecap:butt;stroke-linejoin:miter;stroke-opacity:1" />
      <path
         id="path4309"
         d="M 447.52819,415.23178 L 448.15617,415.87654 L 449.02567,415.93518 L 450.71645,415.1732 L 449.02567,415.40763 L 450.37827,414.41125 L 448.97737,414.88011 L 449.41213,413.59066 L 448.83247,413.06314 L 448.83247,414.2354 L 447.91465,413.12174 L 447.62483,413.29758 L 448.54263,414.2354 L 446.94849,414.46985 L 448.54263,415.05595 L 447.52819,415.23178 z"
         style="fill:#205d13;fill-opacity:1;fill-rule:evenodd;stroke:#000000;stroke-width:0.14301451px;stroke-linecap:butt;stroke-linejoin:miter;stroke-opacity:1" />
      <path
         id="path4311"
         d="M 455.81554,416.02104 L 456.44352,416.6658 L 457.31302,416.72444 L 459.0038,415.96246 L 457.31302,416.19689 L 458.66562,415.20051 L 457.26472,415.66937 L 457.69948,414.37992 L 457.11982,413.8524 L 457.11982,415.02466 L 456.202,413.911 L 455.91218,414.08684 L 456.82998,415.02466 L 455.23584,415.25911 L 456.82998,415.84521 L 455.81554,416.02104 z"
         style="fill:#205d13;fill-opacity:1;fill-rule:evenodd;stroke:#000000;stroke-width:0.14301451px;stroke-linecap:butt;stroke-linejoin:miter;stroke-opacity:1" />
      <path
         id="path4313"
         d="M 463.97136,416.94186 L 464.59934,417.58662 L 465.46884,417.64526 L 467.15962,416.88328 L 465.46884,417.11771 L 466.82144,416.12133 L 465.42054,416.59019 L 465.8553,415.30074 L 465.27564,414.77322 L 465.27564,415.94548 L 464.35782,414.83182 L 464.068,415.00766 L 464.9858,415.94548 L 463.39166,416.17993 L 464.9858,416.76603 L 463.97136,416.94186 z"
         style="fill:#205d13;fill-opacity:1;fill-rule:evenodd;stroke:#000000;stroke-width:0.14301451px;stroke-linecap:butt;stroke-linejoin:miter;stroke-opacity:1" />
      <path
         id="path4315"
         d="M 409.24852,421.94059 L 409.8765,422.58535 L 410.746,422.64399 L 412.43678,421.88201 L 410.746,422.11644 L 412.0986,421.12006 L 410.6977,421.58892 L 411.13246,420.29947 L 410.5528,419.77195 L 410.5528,420.94421 L 409.63498,419.83055 L 409.34516,420.00639 L 410.26296,420.94421 L 408.66882,421.17866 L 410.26296,421.76476 L 409.24852,421.94059 z"
         style="fill:#205d13;fill-opacity:1;fill-rule:evenodd;stroke:#000000;stroke-width:0.14301451px;stroke-linecap:butt;stroke-linejoin:miter;stroke-opacity:1" />
      <path
         id="path4317"
         d="M 416.08888,421.4144 L 416.71686,422.05916 L 417.58636,422.1178 L 419.27714,421.35582 L 417.58636,421.59025 L 418.93896,420.59387 L 417.53806,421.06273 L 417.97282,419.77328 L 417.39316,419.24576 L 417.39316,420.41802 L 416.47534,419.30436 L 416.18552,419.4802 L 417.10332,420.41802 L 415.50918,420.65247 L 417.10332,421.23857 L 416.08888,421.4144 z"
         style="fill:#205d13;fill-opacity:1;fill-rule:evenodd;stroke:#000000;stroke-width:0.14301451px;stroke-linecap:butt;stroke-linejoin:miter;stroke-opacity:1" />
      <path
         id="path4319"
         d="M 423.58695,420.49358 L 424.21493,421.13834 L 425.08443,421.19698 L 426.77521,420.435 L 425.08443,420.66943 L 426.43703,419.67305 L 425.03613,420.14191 L 425.47089,418.85246 L 424.89123,418.32494 L 424.89123,419.4972 L 423.97341,418.38354 L 423.68359,418.55938 L 424.60139,419.4972 L 423.00725,419.73165 L 424.60139,420.31775 L 423.58695,420.49358 z"
         style="fill:#205d13;fill-opacity:1;fill-rule:evenodd;stroke:#000000;stroke-width:0.14301451px;stroke-linecap:butt;stroke-linejoin:miter;stroke-opacity:1" />
      <path
         id="path4321"
         d="M 430.6904,420.23049 L 431.31838,420.87525 L 432.18788,420.93389 L 433.87866,420.17191 L 432.18788,420.40634 L 433.54048,419.40996 L 432.13958,419.87882 L 432.57434,418.58937 L 431.99468,418.06185 L 431.99468,419.23411 L 431.07686,418.12045 L 430.78704,418.29629 L 431.70484,419.23411 L 430.1107,419.46856 L 431.70484,420.05466 L 430.6904,420.23049 z"
         style="fill:#205d13;fill-opacity:1;fill-rule:evenodd;stroke:#000000;stroke-width:0.14301451px;stroke-linecap:butt;stroke-linejoin:miter;stroke-opacity:1" />
      <path
         id="path4323"
         d="M 437.39921,420.36204 L 438.02719,421.0068 L 438.89669,421.06544 L 440.58747,420.30346 L 438.89669,420.53789 L 440.24929,419.54151 L 438.84839,420.01037 L 439.28315,418.72092 L 438.70349,418.1934 L 438.70349,419.36566 L 437.78567,418.252 L 437.49585,418.42784 L 438.41365,419.36566 L 436.81951,419.60011 L 438.41365,420.18621 L 437.39921,420.36204 z"
         style="fill:#205d13;fill-opacity:1;fill-rule:evenodd;stroke:#000000;stroke-width:0.14301451px;stroke-linecap:butt;stroke-linejoin:miter;stroke-opacity:1" />
      <path
         id="path4325"
         d="M 445.42346,420.88822 L 446.05144,421.53298 L 446.92094,421.59162 L 448.61172,420.82964 L 446.92094,421.06407 L 448.27354,420.06769 L 446.87264,420.53655 L 447.3074,419.2471 L 446.72774,418.71958 L 446.72774,419.89184 L 445.80992,418.77818 L 445.5201,418.95402 L 446.4379,419.89184 L 444.84376,420.12629 L 446.4379,420.71239 L 445.42346,420.88822 z"
         style="fill:#205d13;fill-opacity:1;fill-rule:evenodd;stroke:#000000;stroke-width:0.14301451px;stroke-linecap:butt;stroke-linejoin:miter;stroke-opacity:1" />
      <path
         id="path4327"
         d="M 453.05309,421.94058 L 453.68107,422.58534 L 454.55057,422.64398 L 456.24135,421.882 L 454.55057,422.11643 L 455.90317,421.12005 L 454.50227,421.58891 L 454.93703,420.29946 L 454.35737,419.77194 L 454.35737,420.9442 L 453.43955,419.83054 L 453.14973,420.00638 L 454.06753,420.9442 L 452.47339,421.17865 L 454.06753,421.76475 L 453.05309,421.94058 z"
         style="fill:#205d13;fill-opacity:1;fill-rule:evenodd;stroke:#000000;stroke-width:0.14301451px;stroke-linecap:butt;stroke-linejoin:miter;stroke-opacity:1" />
      <path
         id="path4329"
         d="M 461.2089,422.8614 L 461.83688,423.50616 L 462.70638,423.5648 L 464.39716,422.80282 L 462.70638,423.03725 L 464.05898,422.04087 L 462.65808,422.50973 L 463.09284,421.22028 L 462.51318,420.69276 L 462.51318,421.86502 L 461.59536,420.75136 L 461.30554,420.9272 L 462.22334,421.86502 L 460.6292,422.09947 L 462.22334,422.68557 L 461.2089,422.8614 z"
         style="fill:#205d13;fill-opacity:1;fill-rule:evenodd;stroke:#000000;stroke-width:0.14301451px;stroke-linecap:butt;stroke-linejoin:miter;stroke-opacity:1" />
      <path
         id="path4331"
         d="M 467.25998,423.78221 L 467.88796,424.42697 L 468.75746,424.48561 L 470.44824,423.72363 L 468.75746,423.95806 L 470.11006,422.96168 L 468.70916,423.43054 L 469.14392,422.14109 L 468.56426,421.61357 L 468.56426,422.78583 L 467.64644,421.67217 L 467.35662,421.84801 L 468.27442,422.78583 L 466.68028,423.02028 L 468.27442,423.60638 L 467.25998,423.78221 z"
         style="fill:#205d13;fill-opacity:1;fill-rule:evenodd;stroke:#000000;stroke-width:0.14301451px;stroke-linecap:butt;stroke-linejoin:miter;stroke-opacity:1" />
      <path
         id="path4333"
         d="M 407.66997,428.12321 L 408.29795,428.76797 L 409.16745,428.82661 L 410.85823,428.06463 L 409.16745,428.29906 L 410.52005,427.30268 L 409.11915,427.77154 L 409.55391,426.48209 L 408.97425,425.95457 L 408.97425,427.12683 L 408.05643,426.01317 L 407.76661,426.18901 L 408.68441,427.12683 L 407.09027,427.36128 L 408.68441,427.94738 L 407.66997,428.12321 z"
         style="fill:#205d13;fill-opacity:1;fill-rule:evenodd;stroke:#000000;stroke-width:0.14301451px;stroke-linecap:butt;stroke-linejoin:miter;stroke-opacity:1" />
      <path
         id="path4335"
         d="M 414.24724,427.72857 L 414.87522,428.37333 L 415.74472,428.43197 L 417.4355,427.66999 L 415.74472,427.90442 L 417.09732,426.90804 L 415.69642,427.3769 L 416.13118,426.08745 L 415.55152,425.55993 L 415.55152,426.73219 L 414.6337,425.61853 L 414.34388,425.79437 L 415.26168,426.73219 L 413.66754,426.96664 L 415.26168,427.55274 L 414.24724,427.72857 z"
         style="fill:#205d13;fill-opacity:1;fill-rule:evenodd;stroke:#000000;stroke-width:0.14301451px;stroke-linecap:butt;stroke-linejoin:miter;stroke-opacity:1" />
      <path
         id="path4337"
         d="M 421.74532,426.9393 L 422.3733,427.58406 L 423.2428,427.6427 L 424.93358,426.88072 L 423.2428,427.11515 L 424.5954,426.11877 L 423.1945,426.58763 L 423.62926,425.29818 L 423.0496,424.77066 L 423.0496,425.94292 L 422.13178,424.82926 L 421.84196,425.0051 L 422.75976,425.94292 L 421.16562,426.17737 L 422.75976,426.76347 L 421.74532,426.9393 z"
         style="fill:#205d13;fill-opacity:1;fill-rule:evenodd;stroke:#000000;stroke-width:0.14301451px;stroke-linecap:butt;stroke-linejoin:miter;stroke-opacity:1" />
      <path
         id="path4339"
         d="M 429.11185,426.54467 L 429.73983,427.18943 L 430.60933,427.24807 L 432.30011,426.48609 L 430.60933,426.72052 L 431.96193,425.72414 L 430.56103,426.193 L 430.99579,424.90355 L 430.41613,424.37603 L 430.41613,425.54829 L 429.49831,424.43463 L 429.20849,424.61047 L 430.12629,425.54829 L 428.53215,425.78274 L 430.12629,426.36884 L 429.11185,426.54467 z"
         style="fill:#205d13;fill-opacity:1;fill-rule:evenodd;stroke:#000000;stroke-width:0.14301451px;stroke-linecap:butt;stroke-linejoin:miter;stroke-opacity:1" />
      <path
         id="path4341"
         d="M 436.2153,426.9393 L 436.84328,427.58406 L 437.71278,427.6427 L 439.40356,426.88072 L 437.71278,427.11515 L 439.06538,426.11877 L 437.66448,426.58763 L 438.09924,425.29818 L 437.51958,424.77066 L 437.51958,425.94292 L 436.60176,424.82926 L 436.31194,425.0051 L 437.22974,425.94292 L 435.6356,426.17737 L 437.22974,426.76347 L 436.2153,426.9393 z"
         style="fill:#205d13;fill-opacity:1;fill-rule:evenodd;stroke:#000000;stroke-width:0.14301451px;stroke-linecap:butt;stroke-linejoin:miter;stroke-opacity:1" />
      <path
         id="path4343"
         d="M 443.18719,427.33394 L 443.81517,427.9787 L 444.68467,428.03734 L 446.37545,427.27536 L 444.68467,427.50979 L 446.03727,426.51341 L 444.63637,426.98227 L 445.07113,425.69282 L 444.49147,425.1653 L 444.49147,426.33756 L 443.57365,425.2239 L 443.28383,425.39974 L 444.20163,426.33756 L 442.60749,426.57201 L 444.20163,427.15811 L 443.18719,427.33394 z"
         style="fill:#205d13;fill-opacity:1;fill-rule:evenodd;stroke:#000000;stroke-width:0.14301451px;stroke-linecap:butt;stroke-linejoin:miter;stroke-opacity:1" />
      <path
         id="path4345"
         d="M 450.42218,427.59703 L 451.05016,428.24179 L 451.91966,428.30043 L 453.61044,427.53845 L 451.91966,427.77288 L 453.27226,426.7765 L 451.87136,427.24536 L 452.30612,425.95591 L 451.72646,425.42839 L 451.72646,426.60065 L 450.80864,425.48699 L 450.51882,425.66283 L 451.43662,426.60065 L 449.84248,426.8351 L 451.43662,427.4212 L 450.42218,427.59703 z"
         style="fill:#205d13;fill-opacity:1;fill-rule:evenodd;stroke:#000000;stroke-width:0.14301451px;stroke-linecap:butt;stroke-linejoin:miter;stroke-opacity:1" />
      <path
         id="path4347"
         d="M 457.39409,428.12321 L 458.02207,428.76797 L 458.89157,428.82661 L 460.58235,428.06463 L 458.89157,428.29906 L 460.24417,427.30268 L 458.84327,427.77154 L 459.27803,426.48209 L 458.69837,425.95457 L 458.69837,427.12683 L 457.78055,426.01317 L 457.49073,426.18901 L 458.40853,427.12683 L 456.81439,427.36128 L 458.40853,427.94738 L 457.39409,428.12321 z"
         style="fill:#205d13;fill-opacity:1;fill-rule:evenodd;stroke:#000000;stroke-width:0.14301451px;stroke-linecap:butt;stroke-linejoin:miter;stroke-opacity:1" />
      <path
         id="path4349"
         d="M 464.36599,429.43866 L 464.99397,430.08342 L 465.86347,430.14206 L 467.55425,429.38008 L 465.86347,429.61451 L 467.21607,428.61813 L 465.81517,429.08699 L 466.24993,427.79754 L 465.67027,427.27002 L 465.67027,428.44228 L 464.75245,427.32862 L 464.46263,427.50446 L 465.38043,428.44228 L 463.78629,428.67673 L 465.38043,429.26283 L 464.36599,429.43866 z"
         style="fill:#205d13;fill-opacity:1;fill-rule:evenodd;stroke:#000000;stroke-width:0.14301451px;stroke-linecap:butt;stroke-linejoin:miter;stroke-opacity:1" />
      <path
         id="path4351"
         d="M 408.19615,434.83202 L 408.82413,435.47678 L 409.69363,435.53542 L 411.38441,434.77344 L 409.69363,435.00787 L 411.04623,434.01149 L 409.64533,434.48035 L 410.08009,433.1909 L 409.50043,432.66338 L 409.50043,433.83564 L 408.58261,432.72198 L 408.29279,432.89782 L 409.21059,433.83564 L 407.61645,434.07009 L 409.21059,434.65619 L 408.19615,434.83202 z"
         style="fill:#205d13;fill-opacity:1;fill-rule:evenodd;stroke:#000000;stroke-width:0.14301451px;stroke-linecap:butt;stroke-linejoin:miter;stroke-opacity:1" />
      <path
         id="path4353"
         d="M 415.56269,434.43738 L 416.19067,435.08214 L 417.06017,435.14078 L 418.75095,434.3788 L 417.06017,434.61323 L 418.41277,433.61685 L 417.01187,434.08571 L 417.44663,432.79626 L 416.86697,432.26874 L 416.86697,433.441 L 415.94915,432.32734 L 415.65933,432.50318 L 416.57713,433.441 L 414.98299,433.67545 L 416.57713,434.26155 L 415.56269,434.43738 z"
         style="fill:#205d13;fill-opacity:1;fill-rule:evenodd;stroke:#000000;stroke-width:0.14301451px;stroke-linecap:butt;stroke-linejoin:miter;stroke-opacity:1" />
      <path
         id="path4355"
         d="M 424.50777,433.38502 L 425.13575,434.02978 L 426.00525,434.08842 L 427.69603,433.32644 L 426.00525,433.56087 L 427.35785,432.56449 L 425.95695,433.03335 L 426.39171,431.7439 L 425.81205,431.21638 L 425.81205,432.38864 L 424.89423,431.27498 L 424.60441,431.45082 L 425.52221,432.38864 L 423.92807,432.62309 L 425.52221,433.20919 L 424.50777,433.38502 z"
         style="fill:#205d13;fill-opacity:1;fill-rule:evenodd;stroke:#000000;stroke-width:0.14301451px;stroke-linecap:butt;stroke-linejoin:miter;stroke-opacity:1" />
      <path
         id="path4357"
         d="M 433.5844,432.7273 L 434.21238,433.37206 L 435.08188,433.4307 L 436.77266,432.66872 L 435.08188,432.90315 L 436.43448,431.90677 L 435.03358,432.37563 L 435.46834,431.08618 L 434.88868,430.55866 L 434.88868,431.73092 L 433.97086,430.61726 L 433.68104,430.7931 L 434.59884,431.73092 L 433.0047,431.96537 L 434.59884,432.55147 L 433.5844,432.7273 z"
         style="fill:#205d13;fill-opacity:1;fill-rule:evenodd;stroke:#000000;stroke-width:0.14301451px;stroke-linecap:butt;stroke-linejoin:miter;stroke-opacity:1" />
      <path
         id="path4359"
         d="M 442.39792,432.99039 L 443.0259,433.63515 L 443.8954,433.69379 L 445.58618,432.93181 L 443.8954,433.16624 L 445.248,432.16986 L 443.8471,432.63872 L 444.28186,431.34927 L 443.7022,430.82175 L 443.7022,431.99401 L 442.78438,430.88035 L 442.49456,431.05619 L 443.41236,431.99401 L 441.81822,432.22846 L 443.41236,432.81456 L 442.39792,432.99039 z"
         style="fill:#205d13;fill-opacity:1;fill-rule:evenodd;stroke:#000000;stroke-width:0.14301451px;stroke-linecap:butt;stroke-linejoin:miter;stroke-opacity:1" />
      <path
         id="path4361"
         d="M 451.343,433.51657 L 451.97098,434.16133 L 452.84048,434.21997 L 454.53126,433.45799 L 452.84048,433.69242 L 454.19308,432.69604 L 452.79218,433.1649 L 453.22694,431.87545 L 452.64728,431.34793 L 452.64728,432.52019 L 451.72946,431.40653 L 451.43964,431.58237 L 452.35744,432.52019 L 450.7633,432.75464 L 452.35744,433.34074 L 451.343,433.51657 z"
         style="fill:#205d13;fill-opacity:1;fill-rule:evenodd;stroke:#000000;stroke-width:0.14301451px;stroke-linecap:butt;stroke-linejoin:miter;stroke-opacity:1" />
      <path
         id="path4363"
         d="M 458.18336,434.30584 L 458.81134,434.9506 L 459.68084,435.00924 L 461.37162,434.24726 L 459.68084,434.48169 L 461.03344,433.48531 L 459.63254,433.95417 L 460.0673,432.66472 L 459.48764,432.1372 L 459.48764,433.30946 L 458.56982,432.1958 L 458.28,432.37164 L 459.1978,433.30946 L 457.60366,433.54391 L 459.1978,434.13001 L 458.18336,434.30584 z"
         style="fill:#205d13;fill-opacity:1;fill-rule:evenodd;stroke:#000000;stroke-width:0.14301451px;stroke-linecap:butt;stroke-linejoin:miter;stroke-opacity:1" />
      <path
         id="path4365"
         d="M 466.33917,436.67366 L 466.96715,437.31842 L 467.83665,437.37706 L 469.52743,436.61508 L 467.83665,436.84951 L 469.18925,435.85313 L 467.78835,436.32199 L 468.22311,435.03254 L 467.64345,434.50502 L 467.64345,435.67728 L 466.72563,434.56362 L 466.43581,434.73946 L 467.35361,435.67728 L 465.75947,435.91173 L 467.35361,436.49783 L 466.33917,436.67366 z"
         style="fill:#205d13;fill-opacity:1;fill-rule:evenodd;stroke:#000000;stroke-width:0.14301451px;stroke-linecap:butt;stroke-linejoin:miter;stroke-opacity:1" />
      <path
         id="path4367"
         d="M 410.03779,440.48847 L 410.66577,441.13323 L 411.53527,441.19187 L 413.22605,440.42989 L 411.53527,440.66432 L 412.88787,439.66794 L 411.48697,440.1368 L 411.92173,438.84735 L 411.34207,438.31983 L 411.34207,439.49209 L 410.42425,438.37843 L 410.13443,438.55427 L 411.05223,439.49209 L 409.45809,439.72654 L 411.05223,440.31264 L 410.03779,440.48847 z"
         style="fill:#205d13;fill-opacity:1;fill-rule:evenodd;stroke:#000000;stroke-width:0.14301451px;stroke-linecap:butt;stroke-linejoin:miter;stroke-opacity:1" />
      <path
         id="path4369"
         d="M 418.32515,439.96228 L 418.95313,440.60704 L 419.82263,440.66568 L 421.51341,439.9037 L 419.82263,440.13813 L 421.17523,439.14175 L 419.77433,439.61061 L 420.20909,438.32116 L 419.62943,437.79364 L 419.62943,438.9659 L 418.71161,437.85224 L 418.42179,438.02808 L 419.33959,438.9659 L 417.74545,439.20035 L 419.33959,439.78645 L 418.32515,439.96228 z"
         style="fill:#205d13;fill-opacity:1;fill-rule:evenodd;stroke:#000000;stroke-width:0.14301451px;stroke-linecap:butt;stroke-linejoin:miter;stroke-opacity:1" />
      <path
         id="path4371"
         d="M 426.08631,439.4361 L 426.71429,440.08086 L 427.58379,440.1395 L 429.27457,439.37752 L 427.58379,439.61195 L 428.93639,438.61557 L 427.53549,439.08443 L 427.97025,437.79498 L 427.39059,437.26746 L 427.39059,438.43972 L 426.47277,437.32606 L 426.18295,437.5019 L 427.10075,438.43972 L 425.50661,438.67417 L 427.10075,439.26027 L 426.08631,439.4361 z"
         style="fill:#205d13;fill-opacity:1;fill-rule:evenodd;stroke:#000000;stroke-width:0.14301451px;stroke-linecap:butt;stroke-linejoin:miter;stroke-opacity:1" />
      <path
         id="path4373"
         d="M 432.66357,438.90993 L 433.29155,439.55469 L 434.16105,439.61333 L 435.85183,438.85135 L 434.16105,439.08578 L 435.51365,438.0894 L 434.11275,438.55826 L 434.54751,437.26881 L 433.96785,436.74129 L 433.96785,437.91355 L 433.05003,436.79989 L 432.76021,436.97573 L 433.67801,437.91355 L 432.08387,438.148 L 433.67801,438.7341 L 432.66357,438.90993 z"
         style="fill:#205d13;fill-opacity:1;fill-rule:evenodd;stroke:#000000;stroke-width:0.14301451px;stroke-linecap:butt;stroke-linejoin:miter;stroke-opacity:1" />
      <path
         id="path4375"
         d="M 440.42475,439.17302 L 441.05273,439.81778 L 441.92223,439.87642 L 443.61301,439.11444 L 441.92223,439.34887 L 443.27483,438.35249 L 441.87393,438.82135 L 442.30869,437.5319 L 441.72903,437.00438 L 441.72903,438.17664 L 440.81121,437.06298 L 440.52139,437.23882 L 441.43919,438.17664 L 439.84505,438.41109 L 441.43919,438.99719 L 440.42475,439.17302 z"
         style="fill:#205d13;fill-opacity:1;fill-rule:evenodd;stroke:#000000;stroke-width:0.14301451px;stroke-linecap:butt;stroke-linejoin:miter;stroke-opacity:1" />
      <path
         id="path4377"
         d="M 447.79128,439.17302 L 448.41926,439.81778 L 449.28876,439.87642 L 450.97954,439.11444 L 449.28876,439.34887 L 450.64136,438.35249 L 449.24046,438.82135 L 449.67522,437.5319 L 449.09556,437.00438 L 449.09556,438.17664 L 448.17774,437.06298 L 447.88792,437.23882 L 448.80572,438.17664 L 447.21158,438.41109 L 448.80572,438.99719 L 447.79128,439.17302 z"
         style="fill:#205d13;fill-opacity:1;fill-rule:evenodd;stroke:#000000;stroke-width:0.14301451px;stroke-linecap:butt;stroke-linejoin:miter;stroke-opacity:1" />
      <path
         id="path4379"
         d="M 455.42091,440.22538 L 456.04889,440.87014 L 456.91839,440.92878 L 458.60917,440.1668 L 456.91839,440.40123 L 458.27099,439.40485 L 456.87009,439.87371 L 457.30485,438.58426 L 456.72519,438.05674 L 456.72519,439.229 L 455.80737,438.11534 L 455.51755,438.29118 L 456.43535,439.229 L 454.84121,439.46345 L 456.43535,440.04955 L 455.42091,440.22538 z"
         style="fill:#205d13;fill-opacity:1;fill-rule:evenodd;stroke:#000000;stroke-width:0.14301451px;stroke-linecap:butt;stroke-linejoin:miter;stroke-opacity:1" />
      <path
         id="path4381"
         d="M 463.18208,440.35692 L 463.81006,441.00168 L 464.67956,441.06032 L 466.37034,440.29834 L 464.67956,440.53277 L 466.03216,439.53639 L 464.63126,440.00525 L 465.06602,438.7158 L 464.48636,438.18828 L 464.48636,439.36054 L 463.56854,438.24688 L 463.27872,438.42272 L 464.19652,439.36054 L 462.60238,439.59499 L 464.19652,440.18109 L 463.18208,440.35692 z"
         style="fill:#205d13;fill-opacity:1;fill-rule:evenodd;stroke:#000000;stroke-width:0.14301451px;stroke-linecap:butt;stroke-linejoin:miter;stroke-opacity:1" />
      <path
         id="path4383"
         d="M 409.90624,446.408 L 410.53422,447.05276 L 411.40372,447.1114 L 413.0945,446.34942 L 411.40372,446.58385 L 412.75632,445.58747 L 411.35542,446.05633 L 411.79018,444.76688 L 411.21052,444.23936 L 411.21052,445.41162 L 410.2927,444.29796 L 410.00288,444.4738 L 410.92068,445.41162 L 409.32654,445.64607 L 410.92068,446.23217 L 409.90624,446.408 z"
         style="fill:#205d13;fill-opacity:1;fill-rule:evenodd;stroke:#000000;stroke-width:0.14301451px;stroke-linecap:butt;stroke-linejoin:miter;stroke-opacity:1" />
      <path
         id="path4385"
         d="M 417.14124,445.61873 L 417.76922,446.26349 L 418.63872,446.32213 L 420.3295,445.56015 L 418.63872,445.79458 L 419.99132,444.7982 L 418.59042,445.26706 L 419.02518,443.97761 L 418.44552,443.45009 L 418.44552,444.62235 L 417.5277,443.50869 L 417.23788,443.68453 L 418.15568,444.62235 L 416.56154,444.8568 L 418.15568,445.4429 L 417.14124,445.61873 z"
         style="fill:#205d13;fill-opacity:1;fill-rule:evenodd;stroke:#000000;stroke-width:0.14301451px;stroke-linecap:butt;stroke-linejoin:miter;stroke-opacity:1" />
      <path
         id="path4387"
         d="M 425.16549,444.82946 L 425.79347,445.47422 L 426.66297,445.53286 L 428.35375,444.77088 L 426.66297,445.00531 L 428.01557,444.00893 L 426.61467,444.47779 L 427.04943,443.18834 L 426.46977,442.66082 L 426.46977,443.83308 L 425.55195,442.71942 L 425.26213,442.89526 L 426.17993,443.83308 L 424.58579,444.06753 L 426.17993,444.65363 L 425.16549,444.82946 z"
         style="fill:#205d13;fill-opacity:1;fill-rule:evenodd;stroke:#000000;stroke-width:0.14301451px;stroke-linecap:butt;stroke-linejoin:miter;stroke-opacity:1" />
      <path
         id="path4389"
         d="M 432.1374,444.17173 L 432.76538,444.81649 L 433.63488,444.87513 L 435.32566,444.11315 L 433.63488,444.34758 L 434.98748,443.3512 L 433.58658,443.82006 L 434.02134,442.53061 L 433.44168,442.00309 L 433.44168,443.17535 L 432.52386,442.06169 L 432.23404,442.23753 L 433.15184,443.17535 L 431.5577,443.4098 L 433.15184,443.9959 L 432.1374,444.17173 z"
         style="fill:#205d13;fill-opacity:1;fill-rule:evenodd;stroke:#000000;stroke-width:0.14301451px;stroke-linecap:butt;stroke-linejoin:miter;stroke-opacity:1" />
      <path
         id="path4391"
         d="M 440.95093,444.17173 L 441.57891,444.81649 L 442.44841,444.87513 L 444.13919,444.11315 L 442.44841,444.34758 L 443.80101,443.3512 L 442.40011,443.82006 L 442.83487,442.53061 L 442.25521,442.00309 L 442.25521,443.17535 L 441.33739,442.06169 L 441.04757,442.23753 L 441.96537,443.17535 L 440.37123,443.4098 L 441.96537,443.9959 L 440.95093,444.17173 z"
         style="fill:#205d13;fill-opacity:1;fill-rule:evenodd;stroke:#000000;stroke-width:0.14301451px;stroke-linecap:butt;stroke-linejoin:miter;stroke-opacity:1" />
      <path
         id="path4393"
         d="M 441.21402,443.7771 L 441.842,444.42186 L 442.7115,444.4805 L 444.40228,443.71852 L 442.7115,443.95295 L 444.0641,442.95657 L 442.6632,443.42543 L 443.09796,442.13598 L 442.5183,441.60846 L 442.5183,442.78072 L 441.60048,441.66706 L 441.31066,441.8429 L 442.22846,442.78072 L 440.63432,443.01517 L 442.22846,443.60127 L 441.21402,443.7771 z"
         style="fill:#205d13;fill-opacity:1;fill-rule:evenodd;stroke:#000000;stroke-width:0.14301451px;stroke-linecap:butt;stroke-linejoin:miter;stroke-opacity:1" />
      <path
         id="path4395"
         d="M 458.44645,444.82946 L 459.07443,445.47422 L 459.94393,445.53286 L 461.63471,444.77088 L 459.94393,445.00531 L 461.29653,444.00893 L 459.89563,444.47779 L 460.33039,443.18834 L 459.75073,442.66082 L 459.75073,443.83308 L 458.83291,442.71942 L 458.54309,442.89526 L 459.46089,443.83308 L 457.86675,444.06753 L 459.46089,444.65363 L 458.44645,444.82946 z"
         style="fill:#205d13;fill-opacity:1;fill-rule:evenodd;stroke:#000000;stroke-width:0.14301451px;stroke-linecap:butt;stroke-linejoin:miter;stroke-opacity:1" />
      <path
         id="path4397"
         d="M 466.33917,445.61874 L 466.96715,446.2635 L 467.83665,446.32214 L 469.52743,445.56016 L 467.83665,445.79459 L 469.18925,444.79821 L 467.78835,445.26707 L 468.22311,443.97762 L 467.64345,443.4501 L 467.64345,444.62236 L 466.72563,443.5087 L 466.43581,443.68454 L 467.35361,444.62236 L 465.75947,444.85681 L 467.35361,445.44291 L 466.33917,445.61874 z"
         style="fill:#205d13;fill-opacity:1;fill-rule:evenodd;stroke:#000000;stroke-width:0.14301451px;stroke-linecap:butt;stroke-linejoin:miter;stroke-opacity:1" />
    </g>
  </g>
</svg>
