<?xml version="1.0" encoding="UTF-8" standalone="no"?>
<!-- Created with Inkscape (http://www.inkscape.org/) -->
<svg
   xmlns:dc="http://purl.org/dc/elements/1.1/"
   xmlns:cc="http://creativecommons.org/ns#"
   xmlns:rdf="http://www.w3.org/1999/02/22-rdf-syntax-ns#"
   xmlns:svg="http://www.w3.org/2000/svg"
   xmlns="http://www.w3.org/2000/svg"
   xmlns:sodipodi="http://sodipodi.sourceforge.net/DTD/sodipodi-0.dtd"
   xmlns:inkscape="http://www.inkscape.org/namespaces/inkscape"
   id="svg3964"
   sodipodi:version="0.32"
   inkscape:version="0.46"
   width="210mm"
   height="297mm"
   sodipodi:docname="food_icon.svg"
   inkscape:output_extension="org.inkscape.output.svg.inkscape">
  <metadata
     id="metadata3969">
    <rdf:RDF>
      <cc:Work
         rdf:about="">
        <dc:format>image/svg+xml</dc:format>
        <dc:type
           rdf:resource="http://purl.org/dc/dcmitype/StillImage" />
      </cc:Work>
    </rdf:RDF>
  </metadata>
  <defs
     id="defs3967">
    <inkscape:perspective
       sodipodi:type="inkscape:persp3d"
       inkscape:vp_x="0 : 526.18109 : 1"
       inkscape:vp_y="0 : 1000 : 0"
       inkscape:vp_z="744.09448 : 526.18109 : 1"
       inkscape:persp3d-origin="372.04724 : 350.78739 : 1"
       id="perspective3971" />
  </defs>
  <sodipodi:namedview
     inkscape:window-height="672"
     inkscape:window-width="640"
     inkscape:pageshadow="2"
     inkscape:pageopacity="0.0"
     guidetolerance="10.0"
     gridtolerance="10.0"
     objecttolerance="10.0"
     borderopacity="1.0"
     bordercolor="#666666"
     pagecolor="#ffffff"
     id="base"
     showgrid="false"
     inkscape:zoom="0.4751216"
     inkscape:cx="372.04724"
     inkscape:cy="526.18109"
     inkscape:window-x="316"
     inkscape:window-y="47"
     inkscape:current-layer="svg3964" />
  <g
     id="g3952"
     transform="translate(188.35935,-477.32079)">
    <rect
       rx="0"
       ry="0"
       y="991.56439"
       x="168.16916"
       height="23.874977"
       width="31.03747"
       id="rect3940"
       style="opacity:1;fill:#333233;fill-opacity:1;stroke:#060000;stroke-width:0.5;stroke-linecap:square;stroke-linejoin:miter;stroke-miterlimit:4;stroke-dasharray:none;stroke-dashoffset:0;stroke-opacity:1" />
    <path
       id="path3918"
       d="M 177.32562,999.8857 L 187.60649,994.79616 L 192.18707,995.81407 L 193.30677,998.766 L 192.89961,1003.8555 L 177.83458,1008.7415 L 171.62534,1008.8433 L 177.32562,999.8857 z"
       style="fill:#ad0700;fill-opacity:1;fill-rule:evenodd;stroke:#000000;stroke-width:0.7738077px;stroke-linecap:butt;stroke-linejoin:miter;stroke-opacity:1" />
    <path
       sodipodi:nodetypes="cccccc"
       id="path3920"
       d="M 188.01365,996.22124 L 185.06172,998.35884 C 183.25384,999.69904 183.66372,1001.7275 183.73844,1003.652 C 186.01926,1004.6099 188.20809,1004.8872 190.15126,1003.3466 C 191.19105,1001.3476 190.59676,1000.6558 190.35484,999.68212 L 188.01365,996.22124 z"
       style="fill:#ffffff;fill-opacity:1;fill-rule:evenodd;stroke:#000000;stroke-width:0.7738077px;stroke-linecap:butt;stroke-linejoin:miter;stroke-opacity:1" />
    <path
       sodipodi:nodetypes="cccccc"
       id="path3922"
       d="M 174.2719,1004.9752 L 171.72087,1008.8793 L 177.93637,1008.5473 C 178.53795,1007.2744 180.22469,1006.6486 179.03062,1004.8734 C 178.59833,1004.3302 178.75742,1004.4826 176.71488,1004.0082 C 175.84547,1003.9663 175.13482,1004.5567 174.2719,1004.9752 z"
       style="fill:#f9feff;fill-opacity:1;fill-rule:evenodd;stroke:#000000;stroke-width:0.7738077px;stroke-linecap:butt;stroke-linejoin:miter;stroke-opacity:1" />
    <path
       sodipodi:nodetypes="ccccccccc"
       id="path3924"
       d="M 171.0146,1008.8178 C 170.30206,1008.4107 169.08058,1000.2929 169.08058,1000.2929 L 173.1522,996.73018 L 183.73844,992.55677 L 192.18707,995.91586 L 187.81007,994.69437 L 177.22383,999.98749 L 171.37086,1008.487 L 171.0146,1008.8178 z"
       style="fill:#ad0700;fill-opacity:1;fill-rule:evenodd;stroke:#000000;stroke-width:0.7738077px;stroke-linecap:butt;stroke-linejoin:miter;stroke-opacity:1" />
    <g
       transform="translate(-15.733018,23.664733)"
       id="g3930">
      <path
         style="fill:#ffff13;fill-opacity:1;fill-rule:evenodd;stroke:#000000;stroke-width:1px;stroke-linecap:butt;stroke-linejoin:miter;stroke-opacity:1"
         d="M 205.14485,990.5359 L 208.17039,988.89159 L 208.6308,984.15596 L 206.39453,981.98546 L 206.13144,976.00015 L 208.69658,977.05251 L 211.26171,977.18406 L 213.30066,976.26324 L 212.37984,981.85392 L 210.14357,984.22173 L 210.66975,988.89159 L 212.90602,990.73322 L 205.14485,990.5359 z"
         id="path3926" />
      <path
         style="fill:#928ebf;fill-opacity:1;fill-rule:evenodd;stroke:#000000;stroke-width:1px;stroke-linecap:butt;stroke-linejoin:miter;stroke-opacity:1"
         d="M 206.41049,975.30253 L 208.10462,974.09275 L 211.26171,974.15852 L 213.21095,975.61212 L 211.32748,977.24983 L 208.6308,976.98674 L 206.41049,975.30253 z"
         id="path3928"
         sodipodi:nodetypes="ccccccc" />
    </g>
    <path
       sodipodi:nodetypes="ccscc"
       id="path3946"
       d="M 185.65152,1009.1288 L 173.44025,1011.9661 C 173.44025,1011.9661 173.97921,1012.8984 174.57008,1012.7988 C 175.16094,1012.6993 185.88129,1010.423 185.88129,1010.423 L 185.65152,1009.1288 z"
       style="fill:#8f8d89;fill-opacity:1;fill-rule:evenodd;stroke:#000000;stroke-width:0.12291715;stroke-linecap:butt;stroke-linejoin:miter;stroke-miterlimit:4;stroke-dasharray:none;stroke-opacity:1" />
    <path
       sodipodi:nodetypes="ccccccc"
       id="path3950"
       d="M 185.66104,1009.156 L 186.34704,1009.3304 L 188.80035,1008.7142 L 189.06778,1009.6444 L 186.42843,1009.9466 L 185.89358,1010.435 L 185.66104,1009.156 z"
       style="fill:#54514e;fill-opacity:1;fill-rule:evenodd;stroke:#000000;stroke-width:0.1;stroke-linecap:butt;stroke-linejoin:miter;stroke-miterlimit:4;stroke-dasharray:none;stroke-opacity:1" />
  </g>
</svg>
